REM DIRINDEX 1\2\6,1\2\7,1\2\8,1\2\9,1\3\10,1\3\11,1\4\12,1\4\13,1\4\14,1\5\15,1\5\16,1\5\17
REM DIRNAME folder01,folder02,folder03,folder04,folder05,folder06,folder07,folder08,folder09,folder10,folder11,folder12,folder13,folder14,folder15,folder16,folder17
TITLE ""
FILE "1900_3_006 sec01_0079_0100.mp3" MP3
  TRACK 01 AUDIO
    TITLE "0:"
    INDEX 01 00:00:00
  TRACK 02 AUDIO
    TITLE "17:cjc020_6124"
    INDEX 01 00:00:17
  TRACK 03 AUDIO
    TITLE "0:"
    INDEX 01 00:01:46
  TRACK 04 AUDIO
    TITLE "16:cjc020_6125"
    INDEX 01 00:01:52
  TRACK 05 AUDIO
    TITLE "0:"
    INDEX 01 00:02:61
  TRACK 06 AUDIO
    TITLE "17:cjc020_6126"
    INDEX 01 00:03:45
  TRACK 07 AUDIO
    TITLE "0:"
    INDEX 01 00:04:52
  TRACK 08 AUDIO
    TITLE "16:cjc020_6127"
    INDEX 01 00:04:60
  TRACK 09 AUDIO
    TITLE "0:"
    INDEX 01 00:05:65
  TRACK 10 AUDIO
    TITLE "17:cjc020_6128"
    INDEX 01 00:06:51
  TRACK 11 AUDIO
    TITLE "0:"
    INDEX 01 00:07:64
  TRACK 12 AUDIO
    TITLE "16:cjc020_6129"
    INDEX 01 00:08:01
  TRACK 13 AUDIO
    TITLE "0:"
    INDEX 01 00:09:04
  TRACK 14 AUDIO
    TITLE "17:cjc020_6130"
    INDEX 01 00:09:65
  TRACK 15 AUDIO
    TITLE "0:"
    INDEX 01 00:11:05
  TRACK 16 AUDIO
    TITLE "16:cjc020_6131"
    INDEX 01 00:11:11
  TRACK 17 AUDIO
    TITLE "0:"
    INDEX 01 00:12:32
  TRACK 18 AUDIO
    TITLE "17:cjc020_6132"
    INDEX 01 00:13:18
  TRACK 19 AUDIO
    TITLE "0:"
    INDEX 01 00:14:45
  TRACK 20 AUDIO
    TITLE "16:cjc020_6133"
    INDEX 01 00:14:51
  TRACK 21 AUDIO
    TITLE "0:"
    INDEX 01 00:15:62
  TRACK 22 AUDIO
    TITLE "17:cjc020_6134"
    INDEX 01 00:16:48
  TRACK 23 AUDIO
    TITLE "0:"
    INDEX 01 00:17:63
  TRACK 24 AUDIO
    TITLE "16:cjc020_6135"
    INDEX 01 00:17:74
  TRACK 25 AUDIO
    TITLE "0:"
    INDEX 01 00:18:72
  TRACK 26 AUDIO
    TITLE "17:cjc020_6136"
    INDEX 01 00:19:56
  TRACK 27 AUDIO
    TITLE "0:"
    INDEX 01 00:21:02
  TRACK 28 AUDIO
    TITLE "16:cjc020_6137"
    INDEX 01 00:21:09
  TRACK 29 AUDIO
    TITLE "0:"
    INDEX 01 00:22:13
  TRACK 30 AUDIO
    TITLE "17:cjc020_6138"
    INDEX 01 00:22:74
  TRACK 31 AUDIO
    TITLE "0:"
    INDEX 01 00:24:22
  TRACK 32 AUDIO
    TITLE "16:cjc020_6139"
    INDEX 01 00:24:29
  TRACK 33 AUDIO
    TITLE "0:"
    INDEX 01 00:25:54
  TRACK 34 AUDIO
    TITLE "17:cjc020_6140"
    INDEX 01 00:26:38
  TRACK 35 AUDIO
    TITLE "0:"
    INDEX 01 00:27:49
  TRACK 36 AUDIO
    TITLE "16:cjc020_6141"
    INDEX 01 00:27:55
  TRACK 37 AUDIO
    TITLE "0:"
    INDEX 01 00:28:55
  TRACK 38 AUDIO
    TITLE "17:cjc020_6142"
    INDEX 01 00:29:40
  TRACK 39 AUDIO
    TITLE "0:"
    INDEX 01 00:31:04
  TRACK 40 AUDIO
    TITLE "16:cjc020_6143"
    INDEX 01 00:31:08
  TRACK 41 AUDIO
    TITLE "0:"
    INDEX 01 00:32:17
  TRACK 42 AUDIO
    TITLE "17:cjc020_6144"
    INDEX 01 00:32:72
  TRACK 43 AUDIO
    TITLE "0:"
    INDEX 01 00:34:16
  TRACK 44 AUDIO
    TITLE "16:cjc020_6145"
    INDEX 01 00:34:20
  TRACK 45 AUDIO
    TITLE "0:"
    INDEX 01 00:35:35
  TRACK 46 AUDIO
    TITLE "17:cjc020_6146"
    INDEX 01 00:36:19
  TRACK 47 AUDIO
    TITLE "0:"
    INDEX 01 00:37:30
  TRACK 48 AUDIO
    TITLE "16:cjc020_6147"
    INDEX 01 00:37:38
  TRACK 49 AUDIO
    TITLE "0:"
    INDEX 01 00:38:55
  TRACK 50 AUDIO
    TITLE "17:cjc020_6148"
    INDEX 01 00:39:35
  TRACK 51 AUDIO
    TITLE "0:"
    INDEX 01 00:40:58
  TRACK 52 AUDIO
    TITLE "16:cjc020_6149"
    INDEX 01 00:40:60
  TRACK 53 AUDIO
    TITLE "0:"
    INDEX 01 00:42:00
  TRACK 54 AUDIO
    TITLE "17:cjc020_6150"
    INDEX 01 00:42:59
  TRACK 55 AUDIO
    TITLE "0:"
    INDEX 01 00:44:18
  TRACK 56 AUDIO
    TITLE "16:cjc020_6151"
    INDEX 01 00:44:20
  TRACK 57 AUDIO
    TITLE "0:"
    INDEX 01 00:45:20
  TRACK 58 AUDIO
    TITLE "17:cjc020_6152"
    INDEX 01 00:46:06
  TRACK 59 AUDIO
    TITLE "0:"
    INDEX 01 00:47:40
  TRACK 60 AUDIO
    TITLE "16:cjc020_6153"
    INDEX 01 00:47:46
  TRACK 61 AUDIO
    TITLE "0:"
    INDEX 01 00:48:49
  TRACK 62 AUDIO
    TITLE "17:cjc020_6154"
    INDEX 01 00:49:33
  TRACK 63 AUDIO
    TITLE "0:"
    INDEX 01 00:50:58
  TRACK 64 AUDIO
    TITLE "16:cjc020_6155"
    INDEX 01 00:50:62
  TRACK 65 AUDIO
    TITLE "0:"
    INDEX 01 00:51:69
  TRACK 66 AUDIO
    TITLE "17:cjc020_6156"
    INDEX 01 00:52:53
  TRACK 67 AUDIO
    TITLE "0:"
    INDEX 01 00:54:09
  TRACK 68 AUDIO
    TITLE "16:cjc020_6157"
    INDEX 01 00:54:11
  TRACK 69 AUDIO
    TITLE "0:"
    INDEX 01 00:55:10
  TRACK 70 AUDIO
    TITLE "17:cjc020_6158"
    INDEX 01 00:55:71
  TRACK 71 AUDIO
    TITLE "0:"
    INDEX 01 00:57:05
  TRACK 72 AUDIO
    TITLE "16:cjc020_6159"
    INDEX 01 00:57:07
  TRACK 73 AUDIO
    TITLE "0:"
    INDEX 01 00:58:01
  TRACK 74 AUDIO
    TITLE "17:cjc020_6160"
    INDEX 01 00:58:62
  TRACK 75 AUDIO
    TITLE "0:"
    INDEX 01 00:59:57
  TRACK 76 AUDIO
    TITLE "16:cjc020_6161"
    INDEX 01 00:59:67
  TRACK 77 AUDIO
    TITLE "0:"
    INDEX 01 01:00:66
  TRACK 78 AUDIO
    TITLE "17:cjc020_6162"
    INDEX 01 01:01:50
  TRACK 79 AUDIO
    TITLE "0:"
    INDEX 01 01:03:08
  TRACK 80 AUDIO
    TITLE "16:cjc020_6163"
    INDEX 01 01:03:14
  TRACK 81 AUDIO
    TITLE "0:"
    INDEX 01 01:04:25
  TRACK 82 AUDIO
    TITLE "17:cjc020_6164"
    INDEX 01 01:05:09
  TRACK 83 AUDIO
    TITLE "0:"
    INDEX 01 01:06:16
  TRACK 84 AUDIO
    TITLE "16:cjc020_6165"
    INDEX 01 01:06:24
  TRACK 85 AUDIO
    TITLE "0:"
    INDEX 01 01:08:01
  TRACK 86 AUDIO
    TITLE "17:cjc020_6166"
    INDEX 01 01:08:64
  TRACK 87 AUDIO
    TITLE "0:"
    INDEX 01 01:09:73
  TRACK 88 AUDIO
    TITLE "16:cjc020_6167"
    INDEX 01 01:10:00
  TRACK 89 AUDIO
    TITLE "0:"
    INDEX 01 01:10:71
